<svg width="146" height="137" viewBox="0 0 146 137" fill="none" xmlns="http://www.w3.org/2000/svg">
<path d="M21.6388 135.134C16.8156 132.479 15.9808 129.922 11.7141 103.376C9.48806 89.3155 7.44748 76.4353 7.16922 74.7638C6.89096 72.7974 6.05618 71.5192 5.31415 71.5192C4.57212 71.5192 3.08806 70.6343 2.06777 69.5528C0.490961 67.8813 0.2127 66.3081 0.2127 59.7205C0.2127 46.6437 -7.67136 47.9219 72.5605 47.9219C152.792 47.9219 144.908 46.6437 144.908 59.7205C144.908 66.3081 144.63 67.8813 143.053 69.5528C142.033 70.6343 140.549 71.5192 139.807 71.5192C139.065 71.5192 138.416 71.6175 138.416 71.8142C138.323 71.9125 136.375 84.7927 133.871 100.328C129.233 130.021 128.491 132.479 123.482 135.134C121.813 136.117 109.384 136.412 72.5605 136.412C35.7373 136.412 23.3084 136.117 21.6388 135.134ZM48.4446 116.747C50.1142 114.978 50.2997 113.503 50.2997 98.0662C50.2997 82.6296 50.1142 81.1548 48.4446 79.385C47.4243 78.3034 45.7547 77.4185 44.7344 77.4185C43.7142 77.4185 42.0446 78.3034 41.0243 79.385C39.3547 81.1548 39.1692 82.6296 39.1692 98.0662C39.1692 113.503 39.3547 114.978 41.0243 116.747C42.0446 117.829 43.7142 118.714 44.7344 118.714C45.7547 118.714 47.4243 117.829 48.4446 116.747ZM76.2707 116.747C77.9402 114.978 78.1257 113.503 78.1257 98.0662C78.1257 82.6296 77.9402 81.1548 76.2707 79.385C75.2504 78.3034 73.5808 77.4185 72.5605 77.4185C71.5402 77.4185 69.8707 78.3034 68.8504 79.385C67.1808 81.1548 66.9953 82.6296 66.9953 98.0662C66.9953 113.503 67.1808 114.978 68.8504 116.747C69.8707 117.829 71.5402 118.714 72.5605 118.714C73.5808 118.714 75.2504 117.829 76.2707 116.747ZM104.097 116.747C105.766 114.978 105.952 113.503 105.952 98.0662C105.952 82.6296 105.766 81.1548 104.097 79.385C103.076 78.3034 101.407 77.4185 100.387 77.4185C99.3663 77.4185 97.6968 78.3034 96.6765 79.385C95.0069 81.1548 94.8214 82.6296 94.8214 98.0662C94.8214 113.503 95.0069 114.978 96.6765 116.747C97.6968 117.829 99.3663 118.714 100.387 118.714C101.407 118.714 103.076 117.829 104.097 116.747Z" fill="#373737"/>
<path d="M14.4968 30.0273C15.5171 20.5884 16.7229 16.7538 19.9693 12.8209C24.4214 7.41322 27.2041 6.62665 41.1171 6.62665H53.2678L56.5142 3.67699L59.6678 0.727325H72.5606H85.4533L88.607 3.67699C91.7606 6.62665 91.8533 6.62665 103.262 6.62665C117.361 6.62665 120.607 7.51155 124.781 12.526C128.398 16.6555 129.604 20.3917 130.624 30.0273L131.274 36.1233H125.708H120.236L119.216 29.1424C117.639 18.5236 117.546 18.4253 101.221 18.4253H87.4939L84.3403 15.4756C81.2794 12.6243 80.7229 12.526 72.5606 12.526C64.3983 12.526 63.8417 12.6243 60.7809 15.4756L57.6272 18.4253H43.807C30.2649 18.4253 29.9867 18.4253 28.2243 20.8833C27.1113 22.3582 26.1838 25.7011 25.72 29.7323L25.0707 36.1233H19.5055H13.8475L14.4968 30.0273Z" fill="#373737"/>
</svg>
